<?xml version="1.0" encoding="utf-8"?>
<!-- Generator: Adobe Illustrator 20.1.0, SVG Export Plug-In . SVG Version: 6.00 Build 0)  -->
<svg version="1.1" id="レイヤー_1" xmlns="http://www.w3.org/2000/svg" xmlns:xlink="http://www.w3.org/1999/xlink" x="0px"
	 y="0px" viewBox="0 0 40 40" style="enable-background:new 0 0 40 40;" xml:space="preserve">
<style type="text/css">
	.st0{fill:#FFFFFF;}
</style>
<title>cmn_logo02_wt</title>
<g id="レイヤー_2">
	<g id="クリック-メニュー">
		<path class="st0" d="M37.8,10.9c-0.3-0.6-0.7-1.2-1-1.8c-1.1,0.6-12.6,7.2-13.9,8c0.1-0.3,7.5-13,8-13.9c-0.6-0.4-1.2-0.7-1.8-1
			c-0.7,1.1-7.3,12.6-8.1,13.9V0H20h-1c0,1.3,0,15.8,0,16.1L11,2.1c-0.6,0.3-1.2,0.7-1.8,1c0.6,1.1,7.2,12.6,8,13.9l-13.9-8
			c-0.4,0.6-0.7,1.2-1,1.8c1,0.6,12.6,7.3,13.9,8.1H0c0,0.4,0,0.7,0,1s0,0.7,0,1h16.1L2.2,29c0.3,0.6,0.6,1.2,1,1.8
			c1.1-0.6,12.6-7.3,13.9-8l-8,13.9c0.6,0.4,1.2,0.7,1.8,1c0.6-1,7.3-12.6,8.1-13.9V40c0.3,0,0.7,0,1,0s0.7,0,1,0c0-1.3,0-15.8,0-16
			l8,13.9c0.6-0.3,1.2-0.6,1.8-1c-0.6-1.1-7.3-12.6-8-13.9l13.9,8c0.4-0.6,0.7-1.2,1-1.8c-1.1-0.7-12.6-7.3-13.9-8H40
			c0-0.4,0-0.7,0-1s0-0.7,0-1L23.9,19C24.2,18.8,36.9,11.4,37.8,10.9z"/>
	</g>
</g>
</svg>
