<?xml version="1.0" encoding="utf-8"?>
<!-- Generator: Adobe Illustrator 20.1.0, SVG Export Plug-In . SVG Version: 6.00 Build 0)  -->
<svg version="1.1" id="レイヤー_1" xmlns="http://www.w3.org/2000/svg" xmlns:xlink="http://www.w3.org/1999/xlink" x="0px"
	 y="0px" width="35px" height="35px" viewBox="0 0 35 35" style="enable-background:new 0 0 35 35;" xml:space="preserve">
<style type="text/css">
	.st0{fill:#514845;}
</style>
<title>cmn_logo02_br</title>
<g id="レイヤー_2">
	<g id="design">
		<path class="st0" d="M33.1,9.6C32.8,9,32.5,8.5,32.2,8c-0.9,0.5-11,6.3-12.2,7c0.1-0.2,6.6-11.4,7-12.2c-0.5-0.3-1-0.6-1.6-0.9
			c-0.6,0.9-6.4,11-7,12.1V0h-0.9h-0.9c0,1.1,0,13.8,0,14l-7-12.2C9,2.2,8.5,2.5,8,2.8c0.5,0.9,6.3,11,7,12.2L2.8,8
			C2.5,8.5,2.2,9,1.9,9.6c0.9,0.6,11,6.4,12.1,7.1H0c0,0.3,0,0.6,0,0.9s0,0.6,0,0.9h14.1l-12.2,7c0.3,0.5,0.6,1,0.9,1.5
			c0.9-0.5,11-6.3,12.2-7L8,32.2c0.5,0.3,1,0.6,1.6,0.9c0.6-0.9,6.4-11,7.1-12.1v14h0.9h0.9c0-1.1,0-13.8,0-14l7,12.2
			c0.5-0.3,1.1-0.6,1.6-0.9c-0.5-1-6.3-11-7-12.2l12.1,7c0.3-0.5,0.6-1,0.9-1.6c-0.9-0.6-11-6.4-12.1-7h14c0-0.3,0-0.6,0-0.9
			s0-0.6,0-0.9H21C21.1,16.5,32.3,10,33.1,9.6z"/>
	</g>
</g>
</svg>
