<?xml version="1.0" encoding="utf-8"?>
<!-- Generator: Adobe Illustrator 20.1.0, SVG Export Plug-In . SVG Version: 6.00 Build 0)  -->
<svg version="1.1" id="レイヤー_1" xmlns="http://www.w3.org/2000/svg" xmlns:xlink="http://www.w3.org/1999/xlink" x="0px"
	 y="0px" width="206.4px" height="32.1px" viewBox="0 0 206.4 32.1" style="enable-background:new 0 0 206.4 32.1;"
	 xml:space="preserve">
<style type="text/css">
	.st0{fill:#251E1C;}
</style>
<title>cmn_logo01_bk</title>
<g id="レイヤー_2">
	<g id="design">
		<g>
			<g>
				<g>
					<path class="st0" d="M203.2,24c-1.2,0-2-0.8-2.2-2.2c1.8-0.6,4.7-1.6,4.7-3.8c0-1.1-0.9-2-2.1-1.9h-0.1c-2.5,0-4.8,2.8-5,5.8
						c-1.2,1.5-2.2,2.2-3.2,2.2c-0.7,0-1.3-0.5-1.6-1.2l0.9-4.7c2.1-2,3.8-3.9,3.8-6.6c0-1.2-0.4-2-0.9-2c-1,0.2-2,0.5-3,1
						c-0.7,1.4-1.3,2.8-1.7,4.3c-0.5,1.6-0.8,3.2-1.1,4.9l-1.8,1.9l0,0c-1.4,1.4-1.8,1.9-2.3,1.9s-0.6-0.4-0.6-1
						c0.1-1.1,0.4-2.3,0.7-3.4l0.9-3.3H188l-2.2,1.3c-0.3-0.8-1-1.3-1.9-1.3c-2,0-5.6,2.7-5.6,6.6c0,1.8,1,3.2,2.2,3.2
						s2.4-0.9,3.8-3.1c0,0.7,0,3.1,1.6,3.1c1.1,0,2-0.9,3.9-2.7l0.7-0.8c0.1,0.4,0.2,0.7,0.4,1.1c-0.6,3.8-0.9,5.4-1.2,7.9
						c0.7-0.1,1.6-0.3,2.7-0.5c0.3-2.7,0.5-3.8,0.8-5.3c0.3,0.2,0.7,0.3,1.1,0.3c1.1,0,2.7-1,4.1-2.7l0,0c0.2,1.6,1.6,2.8,3.2,2.8
						c1.6,0,2.8-0.7,4.8-2.7v-1.3C205.1,23.2,204.4,24,203.2,24z M197,10.8c0.3,0,0.6,0.4,0.6,1.1c-0.2,1.9-1.2,3.7-2.7,4.9
						C195.3,14.6,196.1,10.8,197,10.8z M182,23.7c-0.6,0-1-0.5-1-1.4c0-1.9,1.4-5.4,3-5.4c0.6,0,1,0.5,1,1.3
						C185,20.2,183.6,23.7,182,23.7z M202.9,17c0.5,0,0.8,0.4,0.8,1.1c0,1.4-0.9,2.5-2.7,3C200.9,18.4,202,17,202.9,17z"/>
					<path class="st0" d="M174.4,23c-0.8,0.8-2,1.1-3.1,0.8c-1-0.4-1.5-2.2-0.7-5.7c0.6-2.3,1.8-4.5,3.5-6.1
						c0.5-0.3,0.8-0.4,0.8-0.3s-0.2,0.8,1.3,2c0.7,0.7,1.8,0.7,2.5,0.1c0.6-0.5,0.7-1.4,0.4-2.1c-0.9-2.8-5.2-3-6.4-2.4
						s-3.3,2.3-5.1,7.7c-1.7,5.3,1.9,7.9,5,8.7s5.5-2,4.9-2.9S175.1,22.3,174.4,23z"/>
				</g>
				<g>
					<path class="st0" d="M111.7,17.8c-2.5-0.4-4.5,0.2-4.7,0.5s0.5,1,1.2,1.3s1.3,0.3,0.7,1.1s-2.2,3.9-4.2,3.1
						c-1.8-0.6-0.9-5.7,0.6-8.4s3.5-3.9,3.9-4s0.3,0.4,0.3,0.6s-0.1,1.4,1.7,2c0.9,0.4,2,0.1,2.4-0.8c0.2-0.5,0.3-1,0-1.5
						c-0.7-1.5-4.2-3.2-6-2.7c-2.5,1-4.4,2.9-5.5,5.3c-1.5,3.1-2.6,7.4,0.4,9.5s4.7,1.8,5.6,1.5s0.7-0.2,0.9,0.1s0.8,0.7,1.4-0.5
						s1.8-4.7,2-5s0.6-0.1,0.8-0.2S114.1,18.1,111.7,17.8z"/>
					<path class="st0" d="M160.3,24c-0.3,0-0.5-0.3-0.5-0.7c0.1-0.8,0.3-1.5,0.6-2.2c0.5-1.1,0.8-2.3,0.9-3.5
						c0.1-0.8-0.5-1.4-1.2-1.5c0,0,0,0-0.1,0c-1.4,0-2.9,1.7-4.6,3.6c0.3-1.2,0.6-2.4,1.1-3.6l-2.6,0.5c-0.8,1.7-1.3,3.4-1.6,5.2
						c-1.3,1.3-2,2.1-3.3,2.1s-2-0.8-2.2-2.2c1.8-0.6,4.7-1.6,4.7-3.8c0-1.1-0.9-2-2.1-1.9h-0.1c-2.5,0-4.8,2.8-5,5.8
						c-0.7,0.8-1.6,1.8-2.2,1.8c-0.4,0-0.6-0.4-0.6-0.9c0-2.5,2.7-12.5,2.7-12.9c0-0.1-0.1-0.2-0.2-0.2c-0.8,0.1-1.7,0.2-2.5,0.5
						l-1.5,6.7c-0.4-0.5-0.9-0.8-1.6-0.7c-2.4,0-4.9,2.8-5.4,5.7l0,0c-1.6,1.6-1.8,1.8-2.3,1.8s-0.8-0.4-0.8-1s0.2-1.2,1-3.6l1-2.9
						h-1c-1,1.9-1.8,2.6-3.1,2.8c0.3-0.6,0.4-1.3,0.5-2c0-0.6-0.3-0.9-0.8-0.9c-1.6,0-2.1,2.2-2.1,2.8c0,0.6,0.4,1.1,0.9,1.3
						c-0.4,0.6-0.9,1.2-1.4,1.8c-1.3,1.3-1.7,1.7-2.2,1.7s-0.7-0.4-0.7-1c0.1-1.1,0.4-2.3,0.7-3.4l0.9-3.3H123l-2.2,1.3
						c-0.3-0.8-1-1.3-1.8-1.3c-2,0-5.6,2.7-5.6,6.6c0,1.8,1,3.2,2.3,3.2s2.4-0.9,3.8-3.1c0,0.7,0,3.1,1.6,3.1c1.1,0,2-0.9,3.8-2.7
						c0.9-0.8,1.6-1.8,2.2-2.9c0.6-0.1,1.2-0.3,1.7-0.6c-0.9,1.2-1.5,2.7-1.6,4.2c0,1.1,0.7,2,1.5,2c0.8,0,2.2-0.8,4.1-2.7
						c0.1,1.5,1.1,2.7,2.3,2.7c0.8-0.1,1.5-0.4,2-0.9c0.7-0.6,1.3-1.3,1.7-2.1c0,3,1.4,3,1.7,3c1.1,0,2.4-1.3,3.8-2.7l0,0
						c0.2,1.6,1.5,2.8,3.2,2.8c1.6,0,2.7-0.6,4.7-2.6c0,0.1,0,0.3,0,0.4c0,0.9,0.1,1.6,0.1,2.2l2.4-0.6c0-1.3,0.1-2.6,0.4-3.9
						c0.9-1.2,2.5-3.2,3.1-3.2c0.2,0,0.3,0.1,0.3,0.4c-0.1,0.6-0.3,1.1-0.5,1.7c-0.5,1.2-0.8,2.4-0.9,3.7c0,1.2,0.6,1.9,1.6,1.9
						c1.2,0,2.5-0.9,4.2-2.7v-1.3C162.5,22.2,161,24,160.3,24z M117.2,23.8c-0.6,0-1-0.5-1-1.4c0-1.9,1.4-5.4,3-5.4
						c0.6,0,1,0.5,1,1.3C120.1,20.2,118.8,23.7,117.2,23.8L117.2,23.8z M136.6,23.8c-0.6,0-1-0.5-1-1.3c0-1.8,1.4-5.4,2.9-5.4
						c0.6,0,1,0.6,1,1.4C139.5,20.3,138.2,23.7,136.6,23.8L136.6,23.8z M148.7,17c0.5,0,0.7,0.4,0.7,1.1c0,1.4-0.9,2.4-2.7,3
						C146.7,18.4,147.9,17,148.7,17z"/>
				</g>
				<path class="st0" d="M96.5,20.9L96.5,20.9c-1.3,1.3-3.2,3.2-4.2,3.2c-0.8,0-1.2-0.8-1.2-2.1c0-0.4,0-1,0.1-1.6
					c2.9-3.3,4.1-6,4.1-9c0.1-0.6-0.1-1.2-0.4-1.6c-0.1-0.1-0.2-0.1-0.3-0.1c-0.1,0-0.1,0-0.2,0l-2.7,1.1c-1,2-3.1,7.2-3.3,11.2
					c-1.3,1.3-1.7,1.8-2.2,1.8s-0.6-0.4-0.6-1c0.1-1.1,0.4-2.3,0.7-3.4l0.9-3.3h-0.1l0,0h-0.6l-2.2,1.2c-0.2-0.7-0.8-1.1-1.5-1.2
					c-0.1,0-0.2,0-0.4,0c-1.8,0-5.1,2.4-5.5,5.9c-1.1,1.2-2.4,2.2-3.8,2.9l0.3-1l2.1-6.6l0.3-1h-0.1l0,0l-2.9,0.6l-1.2,3.5
					c-0.7,2.1-2,3.8-2.9,3.9c-0.4,0-0.6-0.4-0.6-1c0.1-1.2,0.4-2.5,0.9-3.6l1.3-3.3h-0.1l0,0L67.1,17l-1,2.9
					c-0.3,0.8-0.5,1.6-0.6,2.4c-0.9,1-1.4,1.2-1.8,1.3c-0.4,0-0.8-0.2-1.1-0.5c0.7-1.6,1-3.4,1.1-5.1c0-0.5,0-1.1-1.1-1.3
					c-0.3-0.1-0.6-0.1-0.9-0.1c-3.3,0.1-5.8,2.9-5.8,6.2c0,0.5,0.1,0.9,0.2,1.4c-0.6,0.4-1.3,0.5-2,0.2s-1.1-0.9-1.5-2
					c-0.3-0.9-0.8-1.7-1.5-2.3c2-0.6,3.8-1.9,5-3.7c1-1.4-0.9-5-3.8-6.3s-6.2-1.3-8.3-1c0,0-1.4,0.1-1.3,0.6
					c0.5,1.5,2.5,1.4,3.2,1.4s0.7,0.1,0.5,0.4c-1.5,2.9-2.7,6-3.7,9.1c-1.1,3.1,0.2,3.6,0.8,4.2s1,0.3,1.2-0.2s1.8-5,1.8-5
					c0.4,0.1,0.8,0.2,1.3,0.3c0.8,0.9,1.4,2.6,2.3,4c1.1,1.6,3.7,2.5,5.3,1.6c0.5-0.2,0.9-0.6,1.1-1.1c0.4,0.9,1.3,1.5,2.3,1.5h0.1
					c1.3,0,2.5-0.8,3.5-2.4c0.4,0.4,0.9,0.6,1.5,0.6H64c0.6-0.1,1.2-0.3,1.6-0.7c0.1,1.4,0.8,2.4,1.8,2.4h0.1c1,0,2.1-0.7,3.4-2.2
					l-0.6,2.3c-3,1.4-3.8,2.8-3.8,4c-0.1,0.8,0.5,1.5,1.3,1.6c0.1,0,0.1,0,0.2,0s0.3,0,0.4,0c1.2-0.2,2.2-1,2.9-2
					c0.7-1.1,1.2-2.2,1.6-3.4c1.5-0.7,2.9-1.6,4.1-2.7c0.2,1.5,1.1,2.6,2.2,2.6h0.1c1.2,0,2.3-0.9,3.8-3c0,0.8,0,3,1.6,3h0.1
					c1.1,0,2-0.9,3.7-2.6C88.7,25,89.7,26,91,26h0.1h0.2h0.3h0.1c0.5-0.1,1-0.4,1.5-0.7c1.1-0.6,2-1.4,2.9-2.3L96.5,20.9L96.5,20.9z
					 M92.5,14.3c0.6-2.1,1.2-3.4,1.6-3.4h0.1c0.2,0.2,0.3,0.5,0.3,0.8c-0.3,2.5-1.3,4.9-3,6.8C91.7,17.2,92.1,15.7,92.5,14.3
					L92.5,14.3z M48.1,17.2c-0.7,0-0.6-0.2-0.5-0.7s1.5-3.4,2.1-4.6c0.5-0.8,2.3-0.1,2.3-0.1c1.3,0.4,2,1.5,1.7,2.3
					C52.5,15.9,50.4,17.1,48.1,17.2L48.1,17.2z M60.7,20c0,1,0.4,2,1,2.8c-0.6,1-1.1,1.4-1.6,1.5c-0.8,0-1.2-0.9-1.2-2.4
					c0-1.9,0.7-5.1,3-5.1h0.2h0.1C61.2,17.6,60.7,18.8,60.7,20z M67.9,30.5c-0.3,0-0.6-0.3-0.6-0.8c0-1,1-2,2.6-2.8
					C69.4,29.2,68.7,30.4,67.9,30.5L67.9,30.5z M80.6,23.8L80.6,23.8c-0.5,0-0.9-0.6-0.9-1.3c0-1.9,1.4-5.4,3-5.4h0.2
					c0.5,0.1,0.8,0.6,0.8,1.3C83.6,20.2,82.2,23.7,80.6,23.8L80.6,23.8z"/>
			</g>
			<path class="st0" d="M30.3,8.8c-0.3-0.5-0.5-1-0.8-1.4c-0.9,0.5-10.1,5.8-11.2,6.4c0.1-0.2,6-10.5,6.4-11.2
				c-0.5-0.3-0.9-0.6-1.4-0.8c-0.5,0.9-5.9,10.1-6.5,11.1V0H16h-0.8c0,1,0,12.6,0,12.9L8.8,1.8C8.3,2,7.8,2.3,7.3,2.6
				c0.5,0.8,5.8,10.1,6.4,11.2L2.6,7.3C2.3,7.8,2,8.2,1.8,8.7c0.8,0.5,10.1,5.9,11.1,6.5H0c0,0.3,0,0.6,0,0.8c0,0.3,0,0.5,0,0.8
				h12.9L1.8,23.3c0.2,0.5,0.5,1,0.8,1.4c0.9-0.5,10.1-5.8,11.2-6.4L7.3,29.5c0.5,0.3,0.9,0.6,1.4,0.8c0.5-0.8,5.9-10.1,6.5-11.1
				v12.9H16h0.8c0-1,0-12.6,0-12.9l6.4,11.1c0.5-0.2,1-0.5,1.4-0.8c-0.5-0.9-5.8-10.1-6.4-11.2l11.2,6.4c0.3-0.5,0.6-0.9,0.8-1.4
				c-0.9-0.5-10.1-5.9-11.1-6.5H32c0-0.3,0-0.6,0-0.8s0-0.5,0-0.8H19.2L30.3,8.8z"/>
		</g>
	</g>
</g>
</svg>
