<?xml version="1.0" encoding="utf-8"?>
<!-- Generator: Adobe Illustrator 20.1.0, SVG Export Plug-In . SVG Version: 6.00 Build 0)  -->
<svg version="1.1" id="レイヤー_1" xmlns="http://www.w3.org/2000/svg" xmlns:xlink="http://www.w3.org/1999/xlink" x="0px"
	 y="0px" viewBox="0 0 33 33" style="enable-background:new 0 0 33 33;" xml:space="preserve">
<style type="text/css">
	.st0{fill:#ce6e2c;}
	.st1{fill:#FFFFFF;}
</style>
<title>ico_new01</title>
<circle class="st0" cx="16.5" cy="16.5" r="16.5"/>
<g>
	<path class="st1" d="M11.4,19.4h-1.3l-1.5-2.9c-0.4-0.8-0.7-1.5-1.1-2.3l0,0c0.1,0.9,0.1,1.8,0.1,3v2.1H6.4v-6.9h1.4l1.5,2.8
		c0.4,0.7,0.7,1.5,1,2.3l0,0c-0.1-0.9-0.1-1.9-0.1-3v-2.1h1.2L11.4,19.4z"/>
	<path class="st1" d="M17.7,19.4h-3.9v-6.9h3.7v1.1h-2.4v1.7h2.2v1.1h-2.2v1.9h2.5V19.4z"/>
	<path class="st1" d="M27.3,12.4l-1.6,6.9h-1.4l-0.6-2.9c-0.1-0.7-0.3-1.4-0.4-2.2l0,0c-0.1,0.8-0.2,1.5-0.4,2.2l-0.7,2.9h-1.4
		l-1.5-6.9h1.4l0.5,3c0.1,0.8,0.3,1.7,0.4,2.4l0,0c0.1-0.8,0.3-1.6,0.5-2.4l0.6-3h1.3l0.6,3c0.1,0.8,0.3,1.6,0.4,2.4l0,0
		c0.1-0.8,0.2-1.6,0.4-2.4l0.6-3L27.3,12.4z"/>
</g>
</svg>
