<?xml version="1.0" encoding="utf-8"?>
<!-- Generator: Adobe Illustrator 20.1.0, SVG Export Plug-In . SVG Version: 6.00 Build 0)  -->
<svg version="1.1" id="レイヤー_1" xmlns="http://www.w3.org/2000/svg" xmlns:xlink="http://www.w3.org/1999/xlink" x="0px"
	 y="0px" width="80px" height="70px" viewBox="0 0 80 70" style="enable-background:new 0 0 80 70;" xml:space="preserve">
<style type="text/css">
	.st0{fill:#FFFFFF;}
</style>
<title>ico_ttl04_gy</title>
<g id="design">
	<path class="st0" d="M27.5,55.2H33v-5.5h-5.5V55.2z M34.2,55.2h6.1v-5.5h-6.1L34.2,55.2z M27.5,48.4H33v-6.1h-5.5V48.4z M34.2,48.4
		h6.1v-6.1h-6.1L34.2,48.4z M27.5,41.1H33v-5.5h-5.5V41.1z M41.5,55.1h6.1v-5.5h-6.1L41.5,55.1z M34.2,41.1h6.1v-5.5h-6.1L34.2,41.1
		z M48.8,55.1h5.5v-5.5h-5.5V55.1z M41.5,48.4h6.1v-6.1h-6.1L41.5,48.4z M34.8,32v-5.5c0-0.3-0.3-0.6-0.6-0.6H33
		c-0.3,0-0.6,0.3-0.6,0.6V32c0,0.3,0.3,0.6,0.6,0.6h1.2C34.6,32.6,34.8,32.3,34.8,32z M48.8,48.5h5.5v-6.2h-5.5V48.5z M41.5,41.2
		h6.1v-5.5h-6.1L41.5,41.2z M48.8,41.2h5.5v-5.5h-5.5V41.2z M49.5,32v-5.5c0-0.3-0.3-0.6-0.6-0.6h-1.2c-0.3,0-0.6,0.3-0.6,0.6V32
		c0,0.3,0.3,0.6,0.6,0.6h1.2C49.2,32.6,49.5,32.3,49.5,32z M56.8,30.8v24.4c0,1.3-1.1,2.4-2.4,2.4H27.5c-1.3,0-2.4-1.1-2.4-2.4V30.7
		c0-1.3,1.1-2.4,2.4-2.4H30v-1.8c0-1.7,1.4-3,3-3.1h1.2c1.7,0,3,1.4,3,3v1.8h7.3v-1.8c0-1.7,1.4-3,3-3h1.2c1.7,0,3,1.4,3,3v1.8h2.4
		C55.7,28.3,56.8,29.4,56.8,30.8L56.8,30.8z"/>
</g>
</svg>
